#!OML:ASF I:\golf\golf\golf 2\Subject 1\2002-09-07\Subject1.ASF
:FULLY-SPECIFIED
:DEGREES
217
root -5.77425 17.784 3.53468 -0.742778 43.4833 -14.3254
lowerback 4.42381 -7.91779 -14.8395
upperback 2.03446 -10.9729 -2.3273
thorax 2.0062 -5.62574 5.71609
lowerneck -6.74466 19.6613 3.97357
upperneck 16.9523 29.7507 -14.6249
head 9.32588 13.0866 -1.86928
rclavicle -6.63941e-014 6.36111e-015
rhumerus 11.9603 -11.8955 -80.5858
rradius 100.551
rwrist -11.1735
rhand -63.5597 49.2936
rfingers 7.12502
rthumb -35.5337 22.8639
lclavicle -6.63941e-014 6.36111e-015
lhumerus 95.6067 -50.142 41.3722
lradius 31.9961
lwrist -7.11731
lhand -20.1772 2.31303
lfingers 7.12502
lthumb -173.831 -147.797
rfemur -29.7837 16.566 24.9289
rtibia 30.2988
rfoot -5.99263 21.0183
rtoes 22.2345
lfemur -8.32394 22.9488 3.64297
ltibia 36.5627
lfoot -6.04589 15.5383
ltoes -36.156
218
root -5.77653 17.7871 3.57066 -0.576341 43.1655 -14.2259
lowerback 4.42089 -8.03159 -14.8335
upperback 1.96957 -11.1272 -2.41392
thorax 1.95125 -5.69274 5.62025
lowerneck -6.81581 19.8015 3.8372
upperneck 16.4293 29.8352 -14.6251
head 9.1426 13.1554 -1.85442
rclavicle -2.0276e-013 -1.27222e-014
rhumerus 13.0094 -11.9608 -79.7078
rradius 101.225
rwrist -10.3859
rhand -63.2646 51.4546
rfingers 7.12502
rthumb -35.2539 24.9582
lclavicle -2.0276e-013 -1.27222e-014
lhumerus 96.377 -49.6285 41.4574
lradius 31.9784
lwrist -7.31604
lhand -21.0562 1.50145
lfingers 7.12502
lthumb -174.68 -148.585
rfemur -29.8049 16.7125 25.0099
rtibia 30.3215
rfoot -5.8075 21.2222
rtoes 23.0462
lfemur -8.23568 22.9983 3.75372
ltibia 36.6787
lfoot -5.70728 15.4938
ltoes -36.1635
219
root -5.77606 17.7951 3.60805 -0.477499 42.869 -14.0832
lowerback 4.43622 -8.09416 -14.9104
upperback 1.83784 -11.2289 -2.43747
thorax 1.83214 -5.7294 5.64461
lowerneck -6.41357 19.867 3.60397
upperneck 15.7678 29.8084 -14.7158
head 8.82197 13.2053 -1.93331
rclavicle -1.19271e-015 2.22639e-014
rhumerus 13.778 -12.0045 -78.4992
rradius 101.686
rwrist -9.29894
rhand -63.0336 53.4347
rfingers 7.12502
rthumb -35.0348 26.8868
lclavicle -1.19271e-015 2.22639e-014
lhumerus 96.8861 -49.3637 41.908
lradius 32.1647
lwrist -7.24068
lhand -21.8902 1.17965
lfingers 7.12502
lthumb -175.485 -148.888
rfemur -29.6907 16.837 25.0825
rtibia 30.3384
rfoot -5.65576 21.3786
rtoes 23.8004
lfemur -7.99501 23.0765 3.89478
ltibia 36.7938
lfoot -5.58193 15.2444
ltoes -35.1551
220
root -5.77331 17.7996 3.64504 -0.343896 42.5866 -13.9411
lowerback 4.33109 -8.15989 -14.9719
upperback 1.72272 -11.3116 -2.43139
thorax 1.79729 -5.76329 5.67069
lowerneck -6.13507 19.9217 3.3103
upperneck 15.2505 29.7901 -14.7346
head 8.55453 13.243 -1.96725
rclavicle -2.90226e-014 2.8625e-014
rhumerus 14.4431 -12.1627 -77.3517
rradius 102.009
rwrist -8.01877
rhand -63.0259 54.1116
rfingers 7.12502
rthumb -35.0275 27.562
lclavicle -2.90226e-014 2.8625e-014
lhumerus 97.1557 -49.1744 42.6531
lradius 32.5004
lwrist -7.4029
lhand -22.6646 1.14936
lfingers 7.12502
lthumb -176.233 -148.904
rfemur -29.6173 17.0368 25.1029
rtibia 30.3314
rfoot -5.50514 21.4712
rtoes 24.5914
lfemur -7.80913 23.0164 3.99888
ltibia 36.8872
lfoot -5.78553 15.1418
ltoes -33.3436
221
root -5.76944 17.8019 3.68001 -0.181398 42.3296 -13.8415
lowerback 4.26698 -8.22355 -14.8695
upperback 1.5957 -11.3931 -2.52809
thorax 1.67268 -5.78608 5.5188
lowerneck -6.03609 19.9897 3.24356
upperneck 14.8657 29.781 -14.6547
head 8.38109 13.2807 -1.96803
rclavicle 6.26172e-014 7.31528e-014
rhumerus 15.0516 -12.4168 -76.2908
rradius 102.702
rwrist -7.16139
rhand -62.9149 54.1003
rfingers 7.12502
rthumb -34.9222 27.5261
lclavicle 6.26172e-014 7.31528e-014
lhumerus 97.8408 -48.9491 42.713
lradius 32.8133
lwrist -7.7503
lhand -23.6097 1.25543
lfingers 7.12502
lthumb -177.146 -148.784
rfemur -29.6229 17.1657 25.1401
rtibia 30.3351
rfoot -5.40997 21.6532
rtoes 25.1687
lfemur -7.71472 22.9171 4.09242
ltibia 36.9405
lfoot -5.51993 15.0476
ltoes -33.8655
222
root -5.76813 17.8083 3.71487 -0.000742473 42.0891 -13.6229
lowerback 4.41602 -8.26137 -14.8644
upperback 1.42635 -11.485 -2.69066
thorax 1.39111 -5.80128 5.38908
lowerneck -5.99351 20.0488 3.34456
upperneck 14.6688 29.7764 -14.5107
head 8.29539 13.3134 -1.95184
rclavicle -2.40529e-014 6.67916e-014
rhumerus 15.4365 -12.656 -75.2536
rradius 103.441
rwrist -6.45864
rhand -62.7588 54.4509
rfingers 7.12502
rthumb -34.7741 27.8424
lclavicle -2.40529e-014 6.67916e-014
lhumerus 98.628 -48.7696 42.5909
lradius 33.123
lwrist -7.787
lhand -24.5035 1.30341
lfingers 7.12502
lthumb -178.009 -148.726
rfemur -29.5619 17.2425 25.1174
rtibia 30.3546
rfoot -5.31369 21.874
rtoes 25.7853
lfemur -7.58045 23.045 4.093
ltibia 36.9755
lfoot -4.668 14.8897
ltoes -35.9533
223
root -5.77038 17.8129 3.75126 0.199442 41.8602 -13.3616
lowerback 4.54498 -8.3318 -14.9981
upperback 1.31159 -11.6163 -2.79168
thorax 1.22761 -5.84807 5.37887
lowerneck -6.14297 20.1403 3.34928
upperneck 14.5261 29.861 -14.4479
head 8.26973 13.3591 -1.91166
rclavicle -1.59028e-015 -1.90833e-014
rhumerus 15.9878 -12.826 -74.2609
rradius 103.972
rwrist -5.57322
rhand -62.6895 55.1471
rfingers 7.12502
rthumb -34.7083 28.5234
lclavicle -1.59028e-015 -1.90833e-014
lhumerus 99.1957 -48.4796 42.7885
lradius 33.503
lwrist -7.58986
lhand -25.0914 1.17022
lfingers 7.12502
lthumb -178.577 -148.855
rfemur -29.4911 17.4244 25.0468
rtibia 30.3481
rfoot -5.23649 21.9646
rtoes 26.0819
lfemur -7.47844 23.1641 4.05012
ltibia 37.0347
lfoot -3.95139 14.8198
ltoes -36.8649
224
root -5.77204 17.8178 3.78855 0.398714 41.6469 -13.1897
lowerback 4.53163 -8.44295 -15.1178
upperback 1.23065 -11.7735 -2.78379
thorax 1.20551 -5.92089 5.44227
lowerneck -6.31049 20.273 3.07325
upperneck 14.2136 29.9991 -14.4273
head 8.16136 13.4273 -1.8562
rclavicle -3.79679e-014 6.36111e-015
rhumerus 16.8037 -12.9724 -73.2562
rradius 104.383
rwrist -4.65281
rhand -62.6367 55.8717
rfingers 7.12502
rthumb -34.6582 29.2365
lclavicle -3.79679e-014 6.36111e-015
lhumerus 99.5829 -48.0707 43.1803
lradius 33.92
lwrist -7.62734
lhand -25.673 0.919764
lfingers 7.12502
lthumb -179.138 -149.102
rfemur -29.4885 17.5624 25.0406
rtibia 30.3412
rfoot -5.17635 22.0738
rtoes 26.068
lfemur -7.42592 23.0503 4.06107
ltibia 37.0973
lfoot -3.5817 14.8097
ltoes -36.6302
225
root -5.77138 17.8263 3.82356 0.503355 41.4156 -13.1006
lowerback 4.518 -8.4719 -15.115
upperback 1.10124 -11.8236 -2.81494
thorax 1.0767 -5.93036 5.41852
lowerneck -6.10354 20.3275 2.86805
upperneck 13.8281 29.98 -14.3272
head 7.9474 13.4633 -1.85621
rclavicle 2.78299e-015 0
rhumerus 17.3256 -13.2598 -72.1356
rradius 104.793
rwrist -3.92479
rhand -62.6333 56.9683
rfingers 7.12502
rthumb -34.6549 30.3323
lclavicle 2.78299e-015 0
lhumerus 99.9777 -47.927 43.5309
lradius 34.367
lwrist -7.87254
lhand -26.3199 0.499951
lfingers 7.12502
lthumb -179.763 -149.52
rfemur -29.4396 17.6124 25.1206
rtibia 30.3687
rfoot -5.0002 22.2779
rtoes 26.6582
lfemur -7.26134 22.9761 4.18267
ltibia 37.1177
lfoot -3.5334 14.7259
ltoes -35.4861
226
root -5.77098 17.8265 3.85535 0.563231 41.1809 -12.9942
lowerback 4.58022 -8.43611 -15.0178
upperback 0.966476 -11.7979 -2.97578
thorax 0.837763 -5.89186 5.23584
lowerneck -5.78092 20.2995 2.99798
upperneck 13.5258 29.8458 -14.2785
head 7.78973 13.4548 -1.92435
rclavicle 2.74323e-014 5.725e-014
rhumerus 17.557 -13.7395 -71.0979
rradius 105.292
rwrist -3.19291
rhand -62.6075 58.0458
rfingers 7.12502
rthumb -34.6305 31.4042
lclavicle 2.74323e-014 5.725e-014
lhumerus 100.582 -47.9653 43.6445
lradius 34.7529
lwrist -7.90068
lhand -26.8595 -0.157825
lfingers 7.12502
lthumb -180.284 -150.178
rfemur -29.3478 17.7143 25.1722
rtibia 30.4138
rfoot -4.80192 22.443
rtoes 27.5145
lfemur -7.05172 22.9725 4.31104
ltibia 37.0933
lfoot -2.97984 14.5602
ltoes -36.1933
